<?xml version="1.0" encoding="UTF-8" standalone="no"?>
<svg xmlns:svg="http://www.w3.org/2000/svg" xmlns="http://www.w3.org/2000/svg" width="35.433071" height="35.433071" id="svg2" version="1.1"><g id="layer1" transform="translate(0,-1016.9291)"><path style="fill-opacity:1;fill-rule:nonzero;stroke:none" d="m 4.875,13.28125 c -0.245422,0 -0.4375,0.192078 -0.4375,0.4375 l 0,16.84375 C 4.4375,30.807922 4.629578,31 4.875,31 l 25.6875,0 C 30.807922,31 31,30.807922 31,30.5625 l 0,-16.84375 c 0,-0.245422 -0.192078,-0.4375 -0.4375,-0.4375 z m 6.640748,2.220719 12.401575,6.643701 -12.401575,6.6437 z" transform="translate(0,1016.9291)" id="rect4475"></path><path style="fill-opacity:1;fill-rule:nonzero;stroke:none" d="m 4.0864192,1025.7786 25.2885458,-4.5171 c 0.241598,-0.043 0.470839,0.1166 0.513994,0.3582 l 0.623019,3.4879 c 0.04316,0.2416 -0.116603,0.4709 -0.358201,0.514 l -25.2885455,4.5171 c -0.2415981,0.043 -0.4708394,-0.1166 -0.5139941,-0.3582 l -0.6230193,-3.4879 c -0.043155,-0.2416 0.1166031,-0.4709 0.3582011,-0.514 z" id="rect4477"></path></g></svg>