<?xml version="1.0" encoding="UTF-8" standalone="no"?>
<svg xmlns:svg="http://www.w3.org/2000/svg" xmlns="http://www.w3.org/2000/svg" width="35.433071" height="35.433071" id="svg2" version="1.1"><g id="icon"><path style="fill-opacity:1;fill-rule:nonzero;stroke:none" d="m 4.034076,12.9852 c -0.2619511,0 -0.4669651,0.2067 -0.4669651,0.4689 l 0,17.9778 c 0,0.2622 0.205014,0.4669 0.4669651,0.4669 l 27.417585,0 c 0.261949,0 0.466984,-0.2047 0.466984,-0.4669 l 0,-17.9778 c 0,-0.2622 -0.205035,-0.4689 -0.466984,-0.4689 z m 7.088006,2.3718 13.23685,7.091 -13.23685,7.0911 z" id="rect4475-7"></path><path style="fill-opacity:1;fill-rule:nonzero;stroke:none" d="m 3.1923841,8.2551999 26.9917739,-4.8216 c 0.257873,-0.043 0.502549,0.125 0.548602,0.3834 l 0.664977,3.7231 c 0.0461,0.2584 -0.124457,0.5024 -0.382309,0.5476 L 4.0236502,12.9093 C 3.7657792,12.9523 3.5210987,12.7843 3.4750376,12.528 L 2.8100561,8.8048999 c -0.046053,-0.2584 0.1244571,-0.5024 0.382328,-0.5497 z" id="rect4477-5"></path></g></svg>