<?xml version="1.0" encoding="UTF-8" standalone="no"?>
<svg xmlns:svg="http://www.w3.org/2000/svg" xmlns="http://www.w3.org/2000/svg" width="35.433071" height="35.433071" id="svg2" version="1.1"><g id="layer1"><path style="fill-opacity:1;fill-rule:nonzero;stroke:none" d="m 4,11.0625 c -0.2453723,-2.29e-4 -0.46875,0.223378 -0.46875,0.46875 l 0,19.03125 C 3.53125,30.807872 3.7546276,31 4,31 l 27.4375,0 c 0.245372,0 0.4375,-0.192128 0.4375,-0.4375 l 0,-19.03125 c 0,-0.245372 -0.192128,-0.46875 -0.4375,-0.46875 l -11.063484,0.01033 6.200787,-5.7578691 -0.885827,-0.8858318 -7.086614,6.6437009 -1.771653,0 L 9.7440944,4.4291341 8.8582676,5.3149659 15.059055,11.072835 z m 3.53125,3.5625 16.84375,0 c 0.245372,0 0.4375,0.192128 0.4375,0.4375 l 0,11.96875 c 0,0.245372 -0.192128,0.4375 -0.4375,0.4375 l -16.84375,0 c -0.2453724,0 -0.4375,-0.192128 -0.4375,-0.4375 l 0,-11.96875 c 0,-0.245372 0.1921276,-0.4375 0.4375,-0.4375 z m 20.8125,0 c 0.978457,0 1.78125,0.771543 1.78125,1.75 0,0.978457 -0.802793,1.78125 -1.78125,1.78125 -0.978457,0 -1.78125,-0.802793 -1.78125,-1.78125 0,-0.978457 0.802793,-1.75 1.78125,-1.75 z m 0,5.3125 c 0.978457,0 1.78125,0.771543 1.78125,1.75 0,0.978457 -0.802793,1.78125 -1.78125,1.78125 -0.978457,0 -1.78125,-0.802793 -1.78125,-1.78125 0,-0.978457 0.802793,-1.75 1.78125,-1.75 z" id="rect3493-0"></path><path style="fill-opacity:1;fill-rule:nonzero;stroke:none" id="path4276-6" d="m 26.661527,16.935308 a 1.7716535,1.7716535 0 0 1 -0.01679,-0.05466" transform="translate(-11.247417,1.9003001)"></path></g></svg>